# xmcd
#
# Track frame offsets:
#	150
#	12607
#	28937
#	38481
#	53105
#	72509
#	81651
#	95981
#	111787
#	123545
#	137366
#	154138
#	165995
#	179559
#
# Disc length: 2584
#
# Revision: 2
# Processed by: cddbd v1.5.1PL0 Copyright (c) Steve Scherf et al.
# Submitted via: EasyCDDAExtractor 7.0.6.1
# Normalized: r1:DSETVAR1
#
DISCID=c50a160e
DTITLE=Various Artist - Cool Romance
DYEAR=1900
DGENRE=Nostalgia
TTITLE0=Nat King Cole - Unforgettable
TTITLE1=Judy Garland - Fly Me To The Moon
TTITLE2=Frank Sinatra - I Only Have Eyes For You
TTITLE3=Billie Holiday - I Can't Give You Anything But Love
TTITLE4=Louis Prima - Just A Gigolo
TTITLE5=Peggy Lee - Let's Do It Let's Fall In Love
TTITLE6=Marlene Dietrich - Falling In Love Again
TTITLE7=Dean Martin - Some Enchanted Evening
TTITLE8=Mel Torme - My Baby Just Cares For Me
TTITLE9=Leana Horne - Squeeze Me
TTITLE10=The Ink Spots - My Prayer
TTITLE11=Ella Fitzgerald - When My Sugar Walks Down The Street
TTITLE12=Sarah Vaughn - You Go To My Head
TTITLE13=Cool Romance - Someone To Watch Over Me
EXTD=
EXTT0=
EXTT1=
EXTT2=
EXTT3=
EXTT4=
EXTT5=
EXTT6=
EXTT7=
EXTT8=
EXTT9=
EXTT10=
EXTT11=
EXTT12=
EXTT13=
PLAYORDER=
